<svg width="383" height="110" viewBox="0 0 383 110" fill="none" xmlns="http://www.w3.org/2000/svg">
<path fill-rule="evenodd" clip-rule="evenodd" d="M105.834 108.07H85.2507V0H105.834V108.07ZM28.9389 110C13.5739 110 0 101.06 0 86.45C0 67.515 21.1788 61.85 52.8045 58.275V56.935C52.8045 44.56 46.0901 40.235 37.7397 40.235C29.8345 40.235 23.2702 44.235 22.8199 53.205H3.57735C5.21842 37.405 18.0468 25.775 38.7803 25.775C57.7277 25.775 73.388 34.125 73.388 61.105C73.388 61.978 73.3484 63.9897 73.2983 66.5405C73.2114 70.9587 73.0928 76.9939 73.0928 81.53C73.0928 94.2 73.8382 101.355 75.4793 108.065H56.5319C56.0381 105.962 55.7474 103.244 55.4085 100.076L55.4084 100.075C55.3388 99.4239 55.267 98.7532 55.1911 98.065C49.3773 106.43 41.0218 110 28.9389 110ZM53.3799 71.4C30.2598 73.785 21.1588 76.465 21.1588 85.4C21.1588 91.215 25.6618 95.985 35.0329 95.985C48.0114 95.985 53.3799 89.125 53.3799 77.35V71.4ZM118.422 108.07H139.011L139.006 0H118.422V108.07ZM155.091 6.105H175.675V27.87H192.381V42.03H175.675V83.5C175.675 91.695 178.512 93.335 185.821 93.335H192.086V108.095H177.021C158.509 108.095 155.091 102.43 155.091 86.48V42.03H143.754V27.87H155.091V6.105ZM242.909 26.08C232.912 26.08 224.262 30.255 219.639 38.455V0H199.05V108.065H219.639V66.325C219.639 53.655 222.621 42.62 236.194 42.62C247.832 42.62 250.068 51.715 250.068 62V108.07H270.652V57.535C270.652 37.41 262.422 26.08 242.909 26.08ZM303.398 0V19.08H282.81V0H303.398ZM303.398 27.875V108.075H282.81V27.87L303.398 27.875ZM344.475 40.5C354.026 40.5 359.99 45.29 361.631 52L380.884 51.98C378.052 33.495 362.237 25.74 345.531 25.74C328.225 25.74 312.714 35.28 312.714 49.595C312.714 64.2 322.711 70.465 337.776 73.595L349.709 76.13C356.718 77.77 362.837 80.005 362.837 85.965C362.837 91.78 357.314 95.06 348.368 95.06C337.626 95.06 332.257 89.245 331.061 81.495H311.218C313.135 99.83 328.054 109.965 347.742 109.965C365.944 109.965 382.5 100.13 382.5 84.03C382.5 67.48 368.941 63.455 352.981 59.88L342.239 57.495C334.634 55.855 331.502 52.575 331.502 48.25C331.502 43.33 336.87 40.5 344.475 40.5Z" fill="white"/>
</svg>
